<?xml version="1.0" standalone="no"?>
<!DOCTYPE svg PUBLIC "-//W3C//DTD SVG 20010904//EN"
 "http://www.w3.org/TR/2001/REC-SVG-20010904/DTD/svg10.dtd">
<svg version="1.0" xmlns="http://www.w3.org/2000/svg"
 width="547.000000pt" height="578.000000pt" viewBox="0 0 547.000000 578.000000"
 preserveAspectRatio="xMidYMid meet">

<g transform="translate(0.000000,578.000000) scale(0.100000,-0.100000)"
fill="#000000" stroke="none">
<path d="M1685 4685 c-511 -294 -934 -536 -940 -538 -8 -3 395 -1098 424
-1154 3 -7 324 479 721 1094 735 1136 733 1133 728 1132 -2 0 -421 -240 -933
-534z"/>
<path d="M2923 5189 c9 -13 331 -512 717 -1109 385 -597 704 -1086 708 -1088
5 -1 105 255 224 570 196 520 215 574 200 586 -20 16 -1826 1050 -1849 1059
-14 6 -14 4 0 -18z"/>
<path d="M2743 5153 c-11 -15 -354 -544 -762 -1175 l-741 -1147 751 -1143
c413 -629 756 -1149 763 -1155 9 -10 186 253 766 1134 415 630 756 1152 758
1159 2 9 -1476 2310 -1508 2347 -4 5 -16 -4 -27 -20z m227 -1378 c304 -75 407
-131 586 -317 61 -64 92 -106 123 -169 52 -104 66 -179 86 -434 9 -110 19
-224 22 -254 3 -29 2 -73 -2 -98 -5 -36 -9 -42 -20 -33 -30 25 -43 104 -48
285 -7 223 -20 279 -42 180 -50 -220 -54 -255 -44 -348 l11 -91 -37 -72 c-32
-61 -38 -84 -42 -155 -4 -60 0 -102 11 -147 19 -71 14 -90 -14 -62 -25 25 -46
25 -60 0 -10 -19 -11 -19 -31 1 -19 19 -22 19 -46 4 -22 -15 -26 -15 -42 -1
-23 21 -34 20 -56 -4 -31 -35 -36 -2 -15 101 23 112 25 207 5 255 -8 19 -34
60 -58 92 -65 85 -107 156 -129 220 l-19 57 5 -44 4 -44 -126 6 c-70 3 -161
14 -202 24 -74 18 -75 19 -75 51 0 18 -1 32 -2 32 -7 0 -44 -83 -63 -140 -12
-35 -33 -85 -46 -112 -38 -75 -32 -86 63 -134 66 -33 78 -43 62 -47 -17 -5
-21 -12 -17 -36 4 -25 1 -31 -16 -33 -17 -2 -21 -10 -20 -35 2 -29 -1 -33 -23
-33 -22 0 -25 -3 -21 -30 3 -17 1 -30 -4 -30 -4 0 -40 25 -80 56 -39 30 -102
73 -139 95 -83 50 -99 67 -106 116 -4 33 26 341 43 443 6 32 5 33 -8 17 -13
-17 -17 -15 -51 37 -37 55 -45 76 -29 76 5 0 20 16 34 36 l26 36 23 -31 c12
-17 26 -31 31 -31 18 0 69 110 83 180 9 41 30 108 46 148 40 98 46 151 24 207
-21 57 -70 95 -127 101 l-43 5 52 -21 c104 -42 129 -133 74 -275 -17 -44 -37
-113 -46 -153 -15 -73 -48 -152 -64 -152 -4 0 -19 16 -33 36 -25 34 -26 35
-33 14 -12 -38 -67 -91 -125 -120 -64 -33 -73 -41 -89 -92 -12 -37 -37 -66
-48 -55 -3 4 -8 29 -11 57 -4 42 -10 53 -39 76 l-35 27 -26 -34 c-50 -65 -144
-154 -149 -142 -3 10 -10 10 -31 -1 -30 -15 -92 -28 -92 -20 0 3 23 26 51 52
l51 47 2 240 2 240 32 94 c38 110 60 144 104 162 18 7 57 34 85 60 71 64 115
73 272 57 108 -10 128 -9 232 10 63 12 123 24 134 26 52 12 245 -4 345 -29z
m-960 -861 c0 -52 -159 -166 -251 -180 l-44 -6 50 45 c28 26 53 46 56 47 3 0
36 36 74 80 l68 80 24 -22 c13 -12 23 -32 23 -44z m-4 -100 c6 -24 3 -101 -12
-355 -7 -112 2 -149 34 -149 41 0 53 44 30 108 -12 32 -11 35 16 59 36 30 76
28 93 -7 7 -14 13 -52 13 -85 0 -68 -23 -127 -64 -165 -24 -21 -37 -25 -94
-25 -83 0 -120 23 -156 98 -27 55 -53 214 -57 352 l-3 70 60 33 c32 18 72 46
89 63 36 36 43 36 51 3z m668 -366 c-5 -8 -25 0 -57 24 -17 13 -16 17 15 92
l33 79 7 -94 c3 -51 4 -97 2 -101z m978 -75 c-17 -32 -34 -176 -28 -234 7 -55
1 -89 -14 -89 -4 0 -11 19 -14 43 -24 173 -16 248 32 324 l27 43 3 -34 c2 -20
-1 -43 -6 -53z m-884 -32 c2 -13 0 -27 -5 -32 -13 -13 -47 27 -39 46 9 24 40
14 44 -14z m-29 -50 c11 -7 10 -13 -4 -35 -10 -14 -19 -26 -21 -26 -10 0 -35
51 -29 60 8 12 35 13 54 1z m-272 -22 c19 -12 60 -43 91 -70 45 -39 64 -49 93
-49 36 0 36 0 43 -51 4 -28 5 -53 2 -56 -2 -3 -14 5 -25 16 -26 26 -46 27 -64
1 -13 -18 -16 -19 -27 -5 -16 19 -39 19 -60 0 -15 -14 -18 -14 -30 0 -16 20
-39 19 -63 -2 -20 -18 -20 -17 -14 52 4 39 7 96 7 128 0 31 3 57 6 57 4 0 22
-10 41 -21z m228 -58 c0 -8 -8 -19 -18 -25 -14 -8 -20 -8 -27 4 -18 28 -11 41
18 38 15 -2 27 -9 27 -17z m-31 -164 c13 -21 -5 -37 -41 -37 -17 0 -21 4 -16
18 16 44 37 51 57 19z m717 -3 c12 -34 8 -38 -30 -29 -35 7 -35 8 -21 36 15
27 39 24 51 -7z m167 14 c19 -19 14 -37 -13 -44 -34 -8 -41 0 -27 31 13 28 22
31 40 13z m-1057 -25 c7 -21 5 -23 -21 -23 -34 0 -47 15 -29 36 17 20 40 14
50 -13z m84 5 c14 -21 14 -24 -5 -32 -12 -5 -28 -5 -40 0 -19 8 -19 11 -5 32
9 12 20 22 25 22 5 0 16 -10 25 -22z m896 -5 c8 -21 6 -23 -32 -23 -41 0 -42
4 -16 38 14 18 38 11 48 -15z"/>
<path d="M2394 3581 c40 -26 55 -57 56 -111 1 -35 3 -40 10 -25 19 44 11 95
-19 126 -16 16 -40 29 -53 29 -22 0 -22 -1 6 -19z"/>
<path d="M2106 3404 c-9 -8 -16 -30 -15 -47 0 -29 1 -30 12 -13 7 10 23 32 35
47 23 28 23 29 4 29 -11 0 -28 -7 -36 -16z"/>
<path d="M620 2860 c0 -656 2 -1191 4 -1189 2 2 106 264 231 583 l226 579
-227 606 c-124 333 -228 608 -230 610 -2 2 -4 -533 -4 -1189z"/>
<path d="M4672 3440 c-132 -350 -222 -602 -220 -615 3 -13 103 -275 224 -583
l219 -560 3 583 c1 321 1 850 0 1176 l-3 592 -223 -593z"/>
<path d="M3633 1592 c-397 -603 -720 -1098 -719 -1100 5 -5 1876 1070 1876
1078 0 5 -95 251 -211 547 -116 296 -214 546 -218 555 -4 12 -214 -299 -728
-1080z"/>
<path d="M1160 2659 c-6 -13 -105 -265 -220 -559 -146 -375 -205 -537 -197
-542 158 -94 1863 -1065 1865 -1063 4 3 -1411 2160 -1429 2179 -4 5 -13 -1
-19 -15z"/>
</g>
</svg>
